<?xml version="1.0" encoding="UTF-8" standalone="no"?>
<!-- Created with Inkscape (http://www.inkscape.org/) -->

<svg
   xmlns:dc="http://purl.org/dc/elements/1.1/"
   xmlns:cc="http://creativecommons.org/ns#"
   xmlns:rdf="http://www.w3.org/1999/02/22-rdf-syntax-ns#"
   xmlns:svg="http://www.w3.org/2000/svg"
   xmlns="http://www.w3.org/2000/svg"
   xmlns:sodipodi="http://sodipodi.sourceforge.net/DTD/sodipodi-0.dtd"
   xmlns:inkscape="http://www.inkscape.org/namespaces/inkscape"
   width="512"
   height="512"
   viewBox="0 0 135.46666 135.46667"
   version="1.1"
   id="svg8"
   inkscape:version="0.92.3 (2405546, 2018-03-11)"
   sodipodi:docname="ishiiruka.svg"
   inkscape:export-filename="D:\Desktop\discord\dolphin\monochrome\ishiiruka.png"
   inkscape:export-xdpi="192.00002"
   inkscape:export-ydpi="192.00002">
  <defs
     id="defs2" />
  <sodipodi:namedview
     id="base"
     pagecolor="#ffffff"
     bordercolor="#666666"
     borderopacity="1.0"
     inkscape:pageopacity="0.0"
     inkscape:pageshadow="2"
     inkscape:zoom="0.98994949"
     inkscape:cx="243.54659"
     inkscape:cy="159.38246"
     inkscape:document-units="mm"
     inkscape:current-layer="layer1"
     showgrid="false"
     units="px"
     inkscape:window-width="1024"
     inkscape:window-height="705"
     inkscape:window-x="-8"
     inkscape:window-y="-8"
     inkscape:window-maximized="1" />
  <metadata
     id="metadata5">
    <rdf:RDF>
      <cc:Work
         rdf:about="">
        <dc:format>image/svg+xml</dc:format>
        <dc:type
           rdf:resource="http://purl.org/dc/dcmitype/StillImage" />
        <dc:title />
      </cc:Work>
    </rdf:RDF>
  </metadata>
  <g
     inkscape:label="Capa 1"
     inkscape:groupmode="layer"
     id="layer1"
     transform="translate(0,-161.53332)">
    <path
       style="fill:#f2f2f2;stroke-width:0.99999994"
       d="M 61.495776,296.4495 C 40.483008,294.44671 21.766749,282.91932 10.51509,265.05026 7.4169183,260.12996 4.7541868,254.23237 2.9633368,248.32418 0.06735482,238.77009 -0.50678233,227.11011 1.4061354,216.69942 4.3598324,200.62465 13.771128,185.44937 26.961812,175.49209 c 18.858204,-14.23539 43.758191,-17.63808 65.547298,-8.9574 23.80472,9.48379 40.11978,31.39056 42.39588,56.92632 0.7267,8.15259 -0.2122,17.42607 -2.52507,24.94187 -0.5304,1.72339 -1.01921,3.38819 -1.08631,3.69959 -0.067,0.311 0.31981,1.6755 0.85981,3.03159 1.87181,4.7006 3.02372,8.45159 3.02017,9.83449 l -0.004,1.3305 -2.21149,-4.0223 c -2.30826,-4.19818 -3.00754,-5.33129 -7.49205,-12.13988 -1.49845,-2.2751 -2.89723,-4.46629 -3.10838,-4.86929 -1.35976,-2.59579 -12.17716,-14.53868 -17.65765,-19.49497 -9.126337,-8.25339 -18.727795,-13.08808 -32.568172,-16.39927 -6.49207,-1.5533 -11.358633,-2.2321 -17.490763,-2.4399 -11.259865,-0.38201 -20.505279,1.97499 -26.889041,6.85389 -1.845123,1.4101 -4.325821,4.24949 -3.998594,4.57669 0.0954,0.1 1.27139,0.03 2.613276,-0.136 5.386338,-0.683 13.660689,-0.945 19.640868,-0.622 11.341322,0.612 18.900007,2.3095 28.404843,6.37829 9.970165,4.26809 18.502419,10.03499 25.109619,16.97167 2.299764,2.41441 2.438464,2.6244 2.438464,3.6924 0,0.623 -0.071,1.2029 -0.1568,1.2891 -0.086,0.0901 -0.8779,-0.374 -1.7593,-1.0229 -3.4877,-2.56749 -9.502701,-5.97399 -14.106867,-7.98929 -3.297145,-1.4433 -11.06463,-4.24629 -14.963769,-5.39999 -3.184121,-0.942 -10.058917,-2.5924 -12.207754,-2.93049 l -1.147413,-0.181 0.18719,0.885 c 0.317919,1.50219 1.749627,3.90518 3.146754,5.28159 1.655411,1.63079 5.328095,4.11669 7.932676,5.36949 l 1.96836,0.947 v 1.2842 c 0,0.70599 -0.0994,1.34559 -0.22094,1.42069 -0.384949,0.23801 -6.598639,-0.368 -9.481537,-0.924 -5.058912,-0.97599 -9.385125,-2.57649 -12.468578,-4.61189 -2.995323,-1.9773 -6.47953,-6.09339 -8.97034,-10.59708 l -0.429899,-0.777 -3.128948,0.108 c -4.400186,0.152 -8.642995,0.55 -12.485301,1.1731 -5.863884,0.94999 -7.167438,1.27979 -10.64197,2.68869 l -2.072299,0.84 0.160569,2.93659 c 0.35458,6.48489 1.931902,12.55999 4.808969,18.52178 1.482639,3.07239 3.991306,7.57998 4.802863,8.62989 0.239479,0.31 1.282906,1.67409 2.31873,3.03179 2.11382,2.7705 7.81791,8.25879 9.45226,9.44249 9.829006,7.22807 18.748973,10.98236 31.21532,11.87526 3.22322,0.2163 4.732162,0.216 7.95538,0 8.711175,-0.39882 21.008793,-4.35002 28.315514,-9.74237 1.24244,-0.93365 1.2671,-0.9535 2.8998,-2.1345 1.6327,-1.181 7.87647,-7.37558 9.45227,-9.44098 1.5758,-2.0654 1.47235,-1.93684 2.31872,-3.03179 0.84637,-1.09495 5.70718,-10.12359 6.71819,-13.01899 0.26579,-0.76099 0.5444,-1.38339 0.6191,-1.3826 0.14669,10e-4 5.70868,8.30019 6.46551,9.64669 l 0.45921,0.817 -1.23367,2.4424 c -5.28683,10.46639 -13.93048,19.87417 -24.20273,26.34236 -12.316352,7.75528 -27.551443,11.38879 -41.984598,10.01308 z m 62.843784,-62.8434 c 0.49831,-7.67259 -0.35149,-15.45818 -2.36172,-21.63707 -1.10329,-3.39119 -4.28051,-10.03469 -6.37691,-13.33398 -4.11717,-6.47939 -10.7633,-13.08098 -17.690212,-17.57147 -1.717538,-1.11341 -8.682353,-4.5037 -11.107612,-5.4069 -8.541046,-3.1808 -19.420981,-4.01459 -29.758759,-2.2805 -5.065021,0.85001 -8.227317,1.94251 -14.529069,5.0211 -4.188929,2.0465 -4.697898,2.3548 -8.890082,5.38429 -2.815452,2.0346 -8.528498,7.59969 -10.415717,10.14599 -0.809338,1.092 -1.739889,2.28199 -2.067882,2.64439 -0.528679,0.584 -3.274607,5.1362 -3.274607,5.42829 0,0.06 0.45263,-0.171 1.005835,-0.52099 3.171516,-2.0021 8.982726,-4.3566 13.711119,-5.5551 12.494425,-3.16719 24.404597,-2.75909 40.774646,1.3972 l 2.899795,0.736 2.899802,-1.5186 c 3.54008,-1.85389 6.577662,-2.99599 9.88567,-3.71709 4.094119,-0.892 11.583433,-0.726 15.632113,0.348 l 1.00133,0.26499 -0.079,1.456 -0.079,1.4559 -2.63619,0.86 c -1.44989,0.473 -3.382146,1.2391 -4.293884,1.7028 -1.925374,0.97899 -4.155513,3.01919 -4.408086,4.03219 -0.40493,1.6242 1.511433,3.8815 7.39052,8.70519 8.26673,6.78269 16.87224,16.94278 21.34358,25.19916 0.41429,0.765 0.84239,1.2989 0.9514,1.1863 0.1089,-0.113 0.32139,-2.1047 0.47229,-4.42689 z m -67.60568,37.89934 c -0.16769,-0.76599 -0.476749,-1.7694 -0.756759,-2.456 -0.14404,-0.35299 0.05239,-0.398 1.357029,-0.309 1.100837,0.08 1.672198,-0.009 2.052678,-0.30399 0.483389,-0.37401 0.226219,-0.408 -3.092489,-0.416 l -3.619727,-0.008 -0.16541,0.659 c -0.15777,0.629 -0.25536,0.65899 -2.113966,0.65899 -1.137128,0 -1.948557,-0.11099 -1.948557,-0.266 0,-0.244 0.59332,-4.21499 0.935058,-6.25808 l 0.14331,-0.857 H 48.086372 46.6477 l -0.17719,-1.0488 c -0.0974,-0.577 -0.0985,-1.4072 -0.0021,-1.8453 0.16999,-0.774 0.21716,-0.797 1.701112,-0.797 h 1.526273 l 0.163399,-0.989 c 0.0899,-0.544 0.16471,-1.3807 0.1663,-1.86 l 0.0029,-0.872 -0.6242,0.72601 -0.624199,0.726 -1.573122,-1.31451 -1.573121,-1.31439 1.005841,-1.3078 c 1.271523,-1.6531 2.371069,-3.72769 3.138331,-5.92109 0.32967,-0.942 0.670839,-1.7982 0.758139,-1.90169 0.0873,-0.10301 1.165424,0.1 2.39581,0.44299 1.23039,0.347 2.041077,0.639 1.801528,0.65 -0.338438,0.01 -1.014353,1.1951 -1.014353,1.7716 0,0.05 2.830551,0.09 6.290113,0.09 h 6.290119 l 0.16624,1.38399 c 0.308309,2.56681 1.1058,2.30671 -7.071907,2.30671 h -7.24273 l -0.408969,0.79099 -0.40897,0.791 h 6.72903 6.729028 v 2.8998 2.89979 h 1.186284 1.18628 l -0.0038,1.2522 c -0.006,2.17139 -0.164679,2.43849 -1.446298,2.43849 -1.186231,0 -1.437372,0.309 -1.446298,1.77941 -0.0033,0.53699 0.122259,0.59299 1.314489,0.59299 h 1.31809 v 1.8453 1.8453 h -1.439732 -1.439736 l -0.280709,1.0425 c -0.60398,2.24309 -2.185786,3.17539 -5.387287,3.17539 -1.378473,0 -1.468803,-0.04 -1.618575,-0.725 z m -1.696746,-8.36989 c 0,-1.18 -0.0049,-1.18629 -0.922658,-1.18629 -0.843689,0 -0.922669,0.07 -0.922669,0.76899 0,0.423 -0.072,0.957 -0.16001,1.1863 -0.129899,0.339 0.0437,0.417 0.922669,0.417 h 1.082676 z m 5.535979,0 v -1.18629 h -1.054472 -1.054473 v 1.18629 1.1863 h 1.054473 1.054472 z m -5.27236,-5.93138 c 0,-0.936 -0.0707,-1.05451 -0.630199,-1.05451 -0.525009,0 -0.648339,0.155 -0.738859,0.931 -0.12672,1.0854 -0.06739,1.1782 0.753959,1.1782 0.54188,0 0.615109,-0.125 0.615109,-1.0545 z m 5.27236,0.82399 c 0,-0.127 0.0741,-0.601 0.16476,-1.0545 0.15641,-0.78199 0.12302,-0.824 -0.659049,-0.824 -0.453089,0 -0.832879,0.0901 -0.843978,0.198 -0.0111,0.10901 -0.0678,0.43501 -0.12596,0.725 -0.0582,0.29 -0.0528,0.676 0.0119,0.857 0.13191,0.369 1.452321,0.459 1.452321,0.1 z m 12.968431,12.68868 c -0.17535,-0.83499 -0.383349,-1.75509 -0.46226,-2.0451 -0.125139,-0.45999 -0.0155,-0.52699 0.85878,-0.52699 h 1.00223 l 0.0746,-2.9657 0.0746,-2.9657 h -0.903089 c -1.051924,0 -1.223122,0.293 -1.223122,2.0959 0,2.0764 -1.075499,7.65799 -1.475584,7.65799 -0.0641,0 -0.5591,-0.279 -1.099928,-0.62099 -0.540829,-0.34101 -1.258825,-0.70801 -1.595535,-0.81501 -0.436359,-0.138 -0.561409,-0.31999 -0.435379,-0.632 0.0973,-0.24099 0.414899,-1.5052 0.705889,-2.81009 0.461419,-2.06919 0.545639,-3.6364 0.658748,-12.25829 0.0714,-5.43709 0.147801,-9.88808 0.169941,-9.89118 0.0221,-0.003 2.027266,0.04 4.455843,0.09 l 4.415605,0.09 v 4.20199 4.20199 l 0.856758,-0.433 c 0.471219,-0.238 1.746469,-1.101 2.833892,-1.918 l 1.977135,-1.4853 -2.438464,-0.08 -2.438471,-0.08 v -1.96729 -1.9672 h 8.567595 8.56758 v 1.9771 1.97719 h -2.89985 c -1.594889,0 -2.89979,0.07 -2.89979,0.146 0,0.08 0.18474,0.958 0.41055,1.9508 l 0.410549,1.805 1.007372,-1.08 1.007383,-1.0799 1.848597,1.6995 c 1.852203,1.7028 2.057322,2.09489 1.095869,2.09489 -0.401549,0 -1.927933,1.05951 -3.62928,2.519 -0.0493,0.0401 0.2296,0.828 0.61989,1.7447 0.390269,0.91699 0.805648,1.91709 0.923038,2.2219 0.117389,0.30499 0.742089,1.20309 1.388208,1.99639 l 1.174785,1.4423 -1.235541,1.2988 c -0.679549,0.714 -1.37165,1.5361 -1.538017,1.8261 -0.29242,0.51 -0.32484,0.50099 -0.974128,-0.26401 -0.36941,-0.43499 -1.266736,-1.97709 -1.994065,-3.42699 l -1.322415,-2.63619 0.16663,1.71349 c 0.20903,2.1498 -0.25377,4.79879 -1.089824,6.238 -0.914618,1.57449 -2.089855,2.20839 -4.421289,2.38479 l -1.938125,0.147 -0.323309,-1.6433 c -0.17782,-0.90399 -0.38459,-1.8031 -0.459489,-1.99829 -0.10256,-0.267 0.241479,-0.374 1.39349,-0.435 1.407769,-0.07 1.577667,-0.151 2.131838,-0.97601 0.33966,-0.505 0.602169,-1.29489 0.602169,-1.81139 v -0.916 l -1.383999,1.1585 c -1.685364,1.41079 -3.037313,2.4124 -3.804208,2.81819 -0.526869,0.27901 -0.625169,0.204 -1.17673,-0.90099 -0.33101,-0.663 -0.695109,-1.2627 -0.809099,-1.3332 -0.11399,-0.07 -0.20727,0.595 -0.20727,1.4776 0,2.94039 -0.856298,3.97679 -3.571584,4.32299 l -1.330832,0.17 z m 8.711465,-7.71119 c 1.170095,-0.84499 3.228904,-3.12429 3.015322,-3.33789 -0.0824,-0.08 -0.673159,0.279 -1.312764,0.803 -0.639609,0.524 -1.703656,1.2405 -2.364566,1.59189 l -1.201652,0.63901 -0.71734,-1.0351 c -0.394538,-0.569 -0.760518,-1.0351 -0.813298,-1.0351 -0.0528,0 -0.096,1.0196 -0.096,2.2658 v 2.26579 l 1.252183,-0.723 c 0.688708,-0.39699 1.695831,-1.043 2.238069,-1.43469 z m -0.12445,-5.88469 c 1.509346,-1.07799 1.049659,-1.5272 -0.583489,-0.56999 -0.673429,0.395 -1.257779,0.673 -1.29855,0.62 -0.0408,-0.05 -0.34165,-0.543 -0.668639,-1.0865 -0.326979,-0.544 -0.644159,-0.988 -0.704818,-0.988 -0.0607,0 -0.110311,0.89199 -0.110311,1.9825 v 1.98249 l 1.12038,-0.568 c 0.6162,-0.312 1.626644,-0.92999 2.245423,-1.37149 z m -7.056457,-0.31199 c 0,-1.43531 -0.008,-1.44991 -0.790848,-1.44991 -0.782869,0 -0.790859,0.01 -0.790859,1.44991 0,1.43519 0.008,1.44989 0.790859,1.44989 0.782859,0 0.790848,-0.01 0.790848,-1.44989 z m 12.951149,-2.2878 c -0.239519,-1.2583 -0.502059,-2.3544 -0.583419,-2.4357 -0.0813,-0.08 -0.483449,0.202 -0.893508,0.63 l -0.745589,0.778 0.921538,1.1302 c 0.50684,0.622 1.06821,1.4074 1.247491,1.746 0.179269,0.339 0.362639,0.57599 0.407459,0.52699 0.0448,-0.05 -0.11446,-1.11799 -0.35397,-2.37629 z m -13.003277,-4.3686 0.0797,-1.38399 h -0.804628 c -0.800719,0 -0.804629,0.008 -0.804629,1.46739 0,1.4453 0.0109,1.4662 0.724949,1.384 0.676159,-0.08 0.730319,-0.177 0.804629,-1.4674 z m -33.661122,20.75147 c -0.926009,-0.557 -1.795159,-1.12409 -1.931441,-1.2604 -0.154629,-0.155 0.0627,-0.86299 0.578069,-1.88379 1.761462,-3.4894 3.040702,-6.626 3.149255,-7.72159 0.0373,-0.376 0.432959,-0.194 1.299348,0.597 0.478509,0.437 1.205484,0.96799 1.615495,1.18019 l 0.74547,0.385 -0.859909,2.3128 c -0.472949,1.272 -1.229905,3.1934 -1.682127,4.2696 -0.51544,1.2267 -0.764779,2.1858 -0.66826,2.57029 0.21375,0.852 -0.230099,0.763 -2.245901,-0.45 z m 0.892809,-13.46567 c -0.57996,-0.44301 -1.617957,-1.0944 -2.30666,-1.44701 -0.688698,-0.35299 -1.252184,-0.704 -1.252184,-0.77999 0,-0.315 2.194277,-3.0158 2.450473,-3.0158 0.44765,0 4.090233,1.8631 4.420432,2.261 0.23669,0.28499 0.0377,0.733 -0.925459,2.08269 -0.674828,0.946 -1.250628,1.7162 -1.279549,1.7122 -0.0289,-0.004 -0.5271,-0.37 -1.107056,-0.81299 z m 0.263619,-8.8447 c -1.159921,-0.783 -2.139387,-1.51129 -2.176595,-1.61819 -0.03721,-0.107 0.444998,-0.777 1.071572,-1.4891 l 1.139221,-1.29469 1.696419,0.79999 c 0.933029,0.44 1.990265,1.0421 2.349419,1.3376 l 0.652999,0.537 -1.080463,1.5327 c -0.59425,0.84299 -1.184675,1.55189 -1.312048,1.5753 -0.127369,0.02 -1.180608,-0.59801 -2.340526,-1.38121 z"
       id="path849"
       inkscape:connector-curvature="0"
       sodipodi:nodetypes="csccccccccccccccccccccccsccccccccccscccccccccsccccccczzzccccccccccccscccccscccccccccccccccccccccccccssccccccscccccccccccccssccsccccccccccscsccccccscccsscsccccccccccccscsccccscccccccscccssscccccccccccccccccccccsscccccsccccccccccccccccccscccccscccccccccssccccccccssccccssssscccccccccccsscccccccccccccccccsscccccccccccccccc" />
  </g>
</svg>
